<?xml version="1.0" encoding="UTF-8"?>
<svg xmlns="http://www.w3.org/2000/svg" viewBox="0 0 1024 1024">
  <path fill="#00ffa3" d="M517.92,519.24l305.86-.08-299.77,492.68c.68,1.92.8,2.21,1.72,4.01,24.99-14.09,46.81-28.04,71.12-43l72.16-43.89,192.69-116.71,100.35-60.91c17.96-10.93,40.54-25.82,58.7-35.4l-.1,307.51-502.98-.19c-.78-17.7-.06-39.93.05-57.92l.29-97.18-.08-348.92v-.02Z"/>
  <path fill="#00ffa3" d="M517.81-.44c42.46,1.27,87.06-.47,129.7.42,14.86.31,30.23-.42,45.06.23,7.57.86,19.6.47,27.52.32-.03,3.02-.65,13.28.83,15,.52,75.96.55,151.91.06,227.87,62.4-10.1,116.11-34.34,155.13-87,6.84-9.22,11.64-19.5,16.68-29.8.86,10.21.29,28.61.26,39.34l-.03,71.52.15,75.78c0,10.16.52,30.51-.47,40.3-.02,3.73.24,12.11-.73,15.21-.29-.73-1.09-2.52-1.28-3.2-22.49-57.71-109.16-110.87-169.61-118.9l.15,167.49c0,27.18.67,57.4-.06,84.16,3.3.81,5.5.41,8.96.32,28.8-19.22,58.79-36.57,86.98-56.83,23.45-16.77,45.69-34.99,68.81-52.22,46.76-34.81,90.83-74.77,134.8-113.14v228.91c-80.34-1.14-163.54,0-243.99.37l-258.92.18.05-506.37-.03.02Z"/>
  <path fill="#00ffa3" d="M501.21-.46c2.58,0,5.24-.39,7.34.88l-168.78,505.46c-52.9.89-114.99.78-167.97-.29-13.17-43.53-29.11-89.24-43.4-132.59L43.49,114.84c-7.81-24.1-15.77-48.16-23.82-72.19C15.06,28.88,9.43,13.39,5.64-.36c28.04.65,58.03.16,86.24.16l130.94-.16c12.15,32.05,24.05,75.99,34.6,109.5,19.21,61.07,40.14,123.43,58.31,184.7,8.77,29.81,17.93,59.51,27.46,89.09,4.68,14.78,10.28,34.37,15.86,48.53,52.22-105.56,29.05-172.84-4.56-277.78-16.03-50.03-34.37-103.77-48.94-154.09l195.67-.05h0Z"/>
  <path fill="#00ffa3" d="M345.57,1022.65c10.49-19.91,19.61-35.51,18.71-58.68-2.92-74.46-87.78-94.68-143.42-112.47-22.36-7.06-44.6-14.47-66.73-22.21-45.82-15.78-92.89-30.38-121.79-72.56-17.23-25.13-24.62-51.42-24.83-81.69-.15-41.08,15.94-80.57,44.75-109.84,30.17-30.33,73.6-45.79,116-46.03l.11,1.45c-27.8,46.36-18.92,97.81,27.93,126.73,21.37,13.17,42.7,19.29,66.41,26.84,23.02,7.36,45.72,15.78,68.65,23.43,45.93,13.43,85.72,24.97,122.65,57.35,65.31,57.25,67.14,151.36,9.42,214.61-28.32,31.03-75.86,51.57-117.87,53.1h.02Z"/>
  <path fill="#00ffa3" d="M133.96,845c48.45-3.2,72.86,25.75,102.39,58.08l41.29,45.03c20.1,21.87,49.83,51.93,67.42,74.19-8.3,1.62-33.33,1.06-43.52,1.06l-85.81-.03-211.49.16c.52-48.47,8.83-95.59,41.21-133.71,22.7-26.71,53.76-41.81,88.51-44.78v.02Z"/>
  <path fill="#00ffa3" d="M170.35,519.06l334.18.26c.03,50.71-6.41,97.76-43.43,136.02-45.61,47.15-116.5,51.8-163.22,3.3-43.16-44.8-83.99-94.58-128.03-137.9l.5-1.67Z"/>
  <path fill="#00ffa3" d="M692.55.2c6.85-.8,25.3-.67,32.64-.68l60.11.13,181.6.19,53.73-.19.05,221.85c-23.2-21.47-50.92-41.88-75.53-61.93-26.43-21.53-53.52-43.3-80.81-63.73-45.98-33.98-93.59-65.73-142.63-95.13-1.51,4.56-.44,10.07-.8,14.84-1.48-1.72-.86-11.98-.83-15-7.92.15-19.96.54-27.52-.32v-.02Z"/>
</svg>
