<?xml version="1.0" encoding="UTF-8"?>
<svg id="Layer_1" xmlns="http://www.w3.org/2000/svg" version="1.1" viewBox="0 0 1024 261.83">
  <!-- Generator: Adobe Illustrator 30.2.1, SVG Export Plug-In . SVG Version: 2.1.1 Build 1)  -->
  <defs>
    <style>
      .st0 {
        fill: #141410;
      }
    </style>
  </defs>
  <path class="st0" d="M767.78,1.71l155.86-.04-152.75,251.06c.35.98.41,1.13.88,2.04,12.73-7.18,23.85-14.29,36.24-21.91l36.77-22.36,98.19-59.47,51.13-31.04c9.15-5.57,20.66-13.16,29.91-18.04l-.05,156.7-256.3-.1c-.4-9.02-.03-20.35.02-29.51l.15-49.52-.04-177.8h0Z"/>
  <path class="st0" d="M252.53,1.01c1.32,0,2.67-.2,3.74.45l-86.01,257.57c-26.96.46-58.6.4-85.59-.15-6.71-22.18-14.84-45.47-22.12-67.56L19.29,59.76c-3.98-12.28-8.03-24.54-12.14-36.79C4.8,15.96,1.93,8.06,0,1.06c14.29.33,29.57.08,43.94.08l66.72-.08c6.19,16.33,12.25,38.72,17.63,55.8,9.79,31.12,20.45,62.9,29.71,94.12,4.47,15.19,9.13,30.32,13.99,45.4,2.38,7.53,5.24,17.52,8.08,24.73,26.61-53.79,14.8-88.08-2.32-141.55-8.17-25.49-17.52-52.88-24.94-78.52l99.71-.02h0Z"/>
  <path class="st0" d="M686.46,258.25c5.34-10.14,9.99-18.1,9.53-29.9-1.49-37.94-44.73-48.25-73.08-57.31-11.39-3.6-22.73-7.37-34.01-11.32-23.35-8.04-47.34-15.48-62.06-36.98-8.78-12.81-12.54-26.2-12.65-41.63-.07-20.93,8.12-41.06,22.8-55.97,15.37-15.46,37.51-23.33,59.11-23.46l.06.74c-14.16,23.62-9.64,49.84,14.23,64.58,10.89,6.71,21.76,9.83,33.84,13.68,11.73,3.75,23.3,8.04,34.98,11.94,23.41,6.84,43.68,12.73,62.5,29.22,33.28,29.17,34.21,77.13,4.8,109.36-14.43,15.81-38.66,26.28-60.06,27.06h0Z"/>
  <path class="st0" d="M578.64,167.72c24.69-1.63,37.13,13.12,52.18,29.6l21.04,22.94c10.24,11.14,25.39,26.46,34.35,37.8-4.23.83-16.99.54-22.17.54l-43.73-.02-107.77.08c.26-24.7,4.5-48.71,21-68.14,11.57-13.61,27.39-21.31,45.1-22.82h0Z"/>
  <path class="st0" d="M597.18,1.63l170.29.13c.02,25.84-3.27,49.82-22.13,69.31-23.24,24.03-59.37,26.39-83.17,1.68-21.99-22.83-42.8-48.2-65.24-70.27l.26-.85Z"/>
  <g>
    <path class="st0" d="M256.28,1.15c21.64.65,44.36-.24,66.09.22,7.57.16,15.41-.22,22.96.12,3.86.44,9.99.24,14.02.17-.02,1.54-.33,6.77.42,7.65.26,38.71.28,77.41.03,116.12,31.8-5.15,59.17-17.5,79.05-44.33,3.48-4.7,5.93-9.94,8.5-15.18.44,5.2.15,14.58.13,20.05l-.02,36.45.07,38.61c0,5.18.26,15.55-.24,20.54,0,1.9.12,6.17-.37,7.75-.15-.37-.55-1.28-.65-1.63-11.46-29.41-55.63-56.49-86.43-60.59l.07,85.35c0,13.85.34,29.25-.03,42.88,1.68.41,2.8.21,4.57.17,14.68-9.8,29.96-18.63,44.32-28.96,11.95-8.55,23.28-17.83,35.06-26.61,23.83-17.74,46.28-38.1,68.69-57.65v116.65c-40.94-.58-83.34,0-124.33.19l-131.94.09.02-258.03h-.02Z"/>
    <path class="st0" d="M345.32,1.48c3.49-.41,12.89-.34,16.63-.35l30.63.07,92.54.1,27.38-.1.02,113.05c-11.82-10.94-25.95-21.34-38.49-31.56-13.47-10.97-27.27-22.07-41.18-32.48-23.43-17.32-47.69-33.49-72.68-48.48-.77,2.32-.22,5.13-.41,7.56-.75-.88-.44-6.11-.42-7.65-4.04.07-10.17.27-14.02-.17h0Z"/>
  </g>
</svg>